<svg xmlns="http://www.w3.org/2000/svg" width="515.1" height="515.1"><path d="M153 40.8L119.85 2.55 2.55 99.45 35.7 137.7 153 40.8zm359.55 58.65L395.25 0 362.1 38.25l117.3 99.45 33.15-38.25zm-255-43.35c-127.5 0-229.5 102-229.5 229.5s102 229.5 229.5 229.5 229.5-102 229.5-229.5-102-229.5-229.5-229.5zm0 408c-99.45 0-178.5-79.049-178.5-178.5 0-99.45 79.05-178.5 178.5-178.5s178.5 79.05 178.5 178.5c0 99.451-79.05 178.5-178.5 178.5zm25.5-280.5h-51v76.5h-76.5v51h76.5v76.5h51v-76.5h76.5v-51h-76.5v-76.5z"/></svg>