<svg xmlns="http://www.w3.org/2000/svg" width="611.363" height="611.363"><path d="M152.682 458.363c0 15.3 10.2 25.5 25.5 25.5h25.5v89.25c0 20.4 17.85 38.25 38.25 38.25s38.25-17.85 38.25-38.25v-89.25h51v89.25c0 20.4 17.85 38.25 38.25 38.25s38.25-17.85 38.25-38.25v-89.25h25.5c15.3 0 25.5-10.2 25.5-25.5v-255h-306v255zm-63.75-255c-20.4 0-38.25 17.851-38.25 38.25v178.5c0 20.4 17.85 38.25 38.25 38.25s38.25-17.85 38.25-38.25v-178.5c0-20.4-17.85-38.25-38.25-38.25zm433.5 0c-20.4 0-38.25 17.851-38.25 38.25v178.5c0 20.4 17.85 38.25 38.25 38.25s38.25-17.85 38.25-38.25v-178.5c0-20.4-17.85-38.25-38.25-38.25zm-127.5-147.9l33.15-33.15c5.1-5.1 5.1-12.75 0-17.85-5.101-5.101-12.75-5.101-17.851 0l-38.25 38.25c-17.85-12.75-40.8-17.851-66.3-17.851s-48.45 5.101-68.85 15.3l-35.7-38.25c-5.1-2.55-15.3-2.55-20.4 0-2.55 5.101-2.55 15.301 0 20.4l33.15 33.15c-35.7 28.05-61.2 71.399-61.2 122.399h306c.001-50.998-25.499-96.898-63.749-122.398zm-140.25 71.4h-25.5v-25.5h25.5v25.5zm127.5 0h-25.5v-25.5h25.5v25.5z"/></svg>