<?xml version="1.0" encoding="iso-8859-1"?>
<!-- Generator: Adobe Illustrator 18.0.0, SVG Export Plug-In . SVG Version: 6.00 Build 0)  -->
<!DOCTYPE svg PUBLIC "-//W3C//DTD SVG 1.1//EN" "http://www.w3.org/Graphics/SVG/1.1/DTD/svg11.dtd">
<svg version="1.1" id="Capa_1" xmlns="http://www.w3.org/2000/svg" xmlns:xlink="http://www.w3.org/1999/xlink" x="0px" y="0px"
	 viewBox="0 0 325.592 325.592" style="enable-background:new 0 0 325.592 325.592;" xml:space="preserve">
<g>
	<g>
		<path d="M281.512,247.376l-12.23-12.601c4.185,0.508,8.197-2.154,9.257-6.35c1.149-4.551-1.608-9.173-6.16-10.323l-28.821-7.28
			c-2.902-0.733-5.976,0.115-8.092,2.231c-2.117,2.116-2.964,5.19-2.231,8.092l7.28,28.819c0.974,3.853,4.434,6.421,8.235,6.42
			c0.689,0,1.39-0.085,2.088-0.261c4.249-1.073,6.931-5.172,6.335-9.414l12.139,12.507c1.667,1.717,3.882,2.58,6.101,2.58
			c2.132,0,4.268-0.798,5.919-2.4C284.701,256.126,284.782,250.745,281.512,247.376z"/>
		<g>
			<path d="M140.32,153.587c-0.534-1.417-1.893-2.357-3.408-2.357c-0.002,0-0.005,0-0.008,0l-6.138,0.012
				c-1.52,0.003-2.877,0.948-3.407,2.372l-21.336,57.322c-0.415,1.119-0.258,2.369,0.422,3.35c0.681,0.979,1.798,1.564,2.991,1.564
				h5.553c1.521,0,2.883-0.945,3.414-2.373l6.31-16.952h18.441l6.395,16.966c0.536,1.419,1.892,2.358,3.408,2.358h5.561
				c0.007,0,0.013,0,0.022,0c2.012,0,3.642-1.631,3.642-3.644c0-0.587-0.141-1.143-0.388-1.636L140.32,153.587z M129.362,184.037
				l4.516-12.132l4.572,12.132H129.362z"/>
			<path d="M186.9,150.98h-15.789c-2.011,0-3.642,1.631-3.642,3.643v57.236c0,2.011,1.63,3.642,3.642,3.642H186.9
				c18.139,0,32.895-14.454,32.895-32.222C219.796,165.471,205.04,150.98,186.9,150.98z M186.9,203.014h-6.943V163.47h6.943
				c11.252,0,20.407,8.885,20.407,19.81C207.308,194.161,198.152,203.014,186.9,203.014z"/>
		</g>
	</g>
	<path d="M308.092,8.463H17.5c-9.649,0-17.5,7.851-17.5,17.5v273.666c0,9.649,7.851,17.5,17.5,17.5h290.592
		c9.649,0,17.5-7.851,17.5-17.5V25.963C325.592,16.313,317.741,8.463,308.092,8.463z M273.465,35.296c7.995,0,14.5,6.505,14.5,14.5
		s-6.505,14.5-14.5,14.5c-7.995,0-14.5-6.505-14.5-14.5S265.47,35.296,273.465,35.296z M224.294,35.296
		c7.995,0,14.5,6.505,14.5,14.5s-6.505,14.5-14.5,14.5c-7.995,0-14.5-6.505-14.5-14.5S216.299,35.296,224.294,35.296z
		 M44.399,42.296h58.5c4.142,0,7.5,3.358,7.5,7.5s-3.358,7.5-7.5,7.5h-58.5c-4.142,0-7.5-3.358-7.5-7.5S40.257,42.296,44.399,42.296
		z M297.796,286.806c0,1.258-1.024,2.283-2.284,2.283H30.08c-1.259,0-2.284-1.025-2.284-2.283V98.336h270V286.806z"/>
</g>
<g>
</g>
<g>
</g>
<g>
</g>
<g>
</g>
<g>
</g>
<g>
</g>
<g>
</g>
<g>
</g>
<g>
</g>
<g>
</g>
<g>
</g>
<g>
</g>
<g>
</g>
<g>
</g>
<g>
</g>
</svg>
