<svg xmlns="http://www.w3.org/2000/svg" width="561" height="561"><path d="M280.5 114.75c20.4 0 38.25-17.85 38.25-38.25 0-7.65-2.55-12.75-5.1-20.4L280.5 0l-33.15 56.1c-2.55 5.1-5.1 12.75-5.1 20.4 0 20.4 17.85 38.25 38.25 38.25zm165.75 63.75H306v-38.25h-51v38.25H114.75C51 178.5 0 229.5 0 293.25c0 40.8 20.4 73.95 51 94.35V561h459V387.6c30.6-20.399 51-56.1 51-94.35 0-63.75-51-114.75-114.75-114.75zm0 178.5c-17.85 0-33.15-7.65-45.9-17.85L362.1 300.9l-38.25 38.25c-10.2 10.2-25.5 17.85-43.35 17.85s-33.15-7.65-45.9-17.85l-38.25-38.25-38.25 38.25c-10.2 10.2-25.5 17.85-43.35 17.85C79.05 357 51 328.95 51 293.25s28.05-63.75 63.75-63.75h331.5c35.7 0 63.75 28.05 63.75 63.75S481.95 357 446.25 357z"/></svg>