<svg xmlns="http://www.w3.org/2000/svg" width="510" height="510"><path d="M459 0H51C22.95 0 0 22.95 0 51v408c0 28.05 22.95 51 51 51h408c28.05 0 51-22.95 51-51V51c0-28.05-22.95-51-51-51zM357 178.5V204c0 15.3 10.2 25.5 25.5 25.5S408 239.7 408 255v76.5c0 43.35-33.15 76.5-76.5 76.5h-153c-43.35 0-76.5-33.15-76.5-76.5V153c0-43.35 33.15-76.5 76.5-76.5h102c43.35 0 76.5 33.15 76.5 76.5v25.5zM204 204h66.3c15.3 0 25.5-10.2 25.5-25.5S285.6 153 270.3 153H204c-15.3 0-25.5 10.2-25.5 25.5S188.7 204 204 204zm102 76.5H204c-15.3 0-25.5 10.2-25.5 25.5s10.2 25.5 25.5 25.5h102c15.3 0 25.5-10.2 25.5-25.5s-10.2-25.5-25.5-25.5z"/></svg>