<svg xmlns="http://www.w3.org/2000/svg" width="510" height="510"><path d="M311.1 255l58.65 58.65c7.65-17.851 10.2-38.25 10.2-58.65s-5.101-40.8-10.2-58.65L311.1 255zm135.15-135.15L415.65 153c15.3 30.6 25.5 66.3 25.5 102s-10.2 71.4-25.5 102l30.6 30.6c25.5-38.25 38.25-86.699 38.25-135.149S471.75 158.1 446.25 119.85zm-96.9 25.5L204 0h-25.5v193.8L61.2 76.5l-35.7 35.7L168.3 255 25.5 397.8l35.7 35.7 117.3-117.3V510H204l145.35-145.35L239.7 255l109.65-109.65zM229.5 96.9l48.45 48.45-48.45 48.45V96.9zm48.45 267.75L229.5 413.1v-96.9l48.45 48.45z"/></svg>