<svg xmlns="http://www.w3.org/2000/svg" width="561" height="561"><circle cx="140.25" cy="395.25" r="38.25"/><circle cx="420.75" cy="395.25" r="38.25"/><path d="M456.45 178.5c-5.101-15.3-20.4-25.5-35.7-25.5H127.5v-51L51 178.5l51 51 25.5 25.5v-51h298.35L459 306H51v229.5c0 15.3 10.2 25.5 25.5 25.5H102c15.3 0 25.5-10.2 25.5-25.5V510h306v25.5c0 15.3 10.2 25.5 25.5 25.5h25.5c15.3 0 25.5-10.2 25.5-25.5v-204l-53.55-153zm-316.2 255c-20.4 0-38.25-17.85-38.25-38.25S119.85 357 140.25 357s38.25 17.85 38.25 38.25-17.85 38.25-38.25 38.25zm280.5 0c-20.4 0-38.25-17.85-38.25-38.25S400.35 357 420.75 357 459 374.85 459 395.25s-17.85 38.25-38.25 38.25zM382.5 0v51h-204v51h204v51L459 76.5 382.5 0z"/></svg>