<svg xmlns="http://www.w3.org/2000/svg" width="510" height="510"><path d="M255 216.75c56.1 0 102-45.9 102-102s-45.9-102-102-102-102 45.9-102 102 45.9 102 102 102zm0-153c28.05 0 51 22.95 51 51s-22.95 51-51 51-51-22.95-51-51 22.95-51 51-51zm-153 229.5c-56.1 0-102 45.9-102 102s45.9 102 102 102 102-45.9 102-102-45.9-102-102-102zm0 153c-28.05 0-51-22.95-51-51s22.95-51 51-51 51 22.95 51 51-22.95 51-51 51zM255 244.8c-25.5 0-48.45 22.95-48.45 48.45S229.5 341.7 255 341.7s48.45-22.95 48.45-48.45S280.5 244.8 255 244.8zm153 48.45c-56.1 0-102 45.9-102 102s45.9 102 102 102 102-45.9 102-102-45.9-102-102-102zm0 153c-28.05 0-51-22.95-51-51s22.95-51 51-51 51 22.95 51 51-22.95 51-51 51z"/></svg>