<svg xmlns="http://www.w3.org/2000/svg" width="459" height="459"><path d="M408 25.5H51c-28.05 0-51 22.95-51 51v306c0 28.05 22.95 51 51 51h357c28.05 0 51-22.95 51-51v-306c0-28.05-22.95-51-51-51zM204 204h-38.25v-12.75h-51v76.5h51V255H204v25.5c0 15.3-10.2 25.5-25.5 25.5H102c-15.3 0-25.5-10.2-25.5-25.5v-102c0-15.3 10.2-25.5 25.5-25.5h76.5c15.3 0 25.5 10.2 25.5 25.5V204zm178.5 0h-38.25v-12.75h-51v76.5h51V255h38.25v25.5c0 15.3-10.2 25.5-25.5 25.5h-76.5c-15.3 0-25.5-10.2-25.5-25.5v-102c0-15.3 10.2-25.5 25.5-25.5H357c15.3 0 25.5 10.2 25.5 25.5V204z"/></svg>