<svg xmlns="http://www.w3.org/2000/svg" width="535.5" height="535.5"><path d="M204 114.75c0-56.1-45.9-102-102-102S0 58.65 0 114.75s45.9 102 102 102c15.3 0 28.05-2.55 40.8-10.2l61.2 61.2-61.2 61.2c-12.75-7.65-25.5-10.2-40.8-10.2-56.1 0-102 45.9-102 102s45.9 102 102 102 102-45.9 102-102c0-15.3-2.55-28.05-10.2-40.8l61.2-61.2 178.5 178.5h102l-341.7-341.7c7.65-12.75 10.2-25.5 10.2-40.8zm-102 51c-28.05 0-51-22.95-51-51s22.95-51 51-51 51 22.95 51 51-22.95 51-51 51zm0 306c-28.05 0-51-22.95-51-51s22.95-51 51-51 51 22.95 51 51-22.95 51-51 51zM255 255c7.65 0 12.75 5.1 12.75 12.75s-5.1 12.75-12.75 12.75-12.75-5.1-12.75-12.75S247.35 255 255 255zM535.5 38.25h-102l-153 153 51 51 204-204z"/></svg>