<svg xmlns="http://www.w3.org/2000/svg" width="510" height="510"><path d="M344.25 229.5c20.4 0 38.25-17.85 38.25-38.25S364.65 153 344.25 153 306 170.85 306 191.25s17.85 38.25 38.25 38.25zm-178.5 0c20.4 0 38.25-17.85 38.25-38.25S186.15 153 165.75 153s-38.25 17.85-38.25 38.25 17.85 38.25 38.25 38.25zM255 408c66.3 0 122.4-43.35 145.35-102h-290.7C132.6 364.65 188.7 408 255 408zm0-408C114.75 0 0 114.75 0 255s114.75 255 255 255 255-114.75 255-255S395.25 0 255 0zm0 459c-112.2 0-204-91.8-204-204S142.8 51 255 51s204 91.8 204 204-91.8 204-204 204z"/></svg>