<svg xmlns="http://www.w3.org/2000/svg" width="510" height="510"><path d="M255 0C114.75 0 0 114.75 0 255s114.75 255 255 255 255-114.75 255-255S395.25 0 255 0zm0 51c76.5 0 140.25 40.8 175.95 102H255c-48.45 0-91.8 35.7-99.45 81.6l-61.2-104.55C132.6 81.6 188.7 51 255 51zm76.5 204c0 43.35-33.15 76.5-76.5 76.5s-76.5-33.15-76.5-76.5 33.15-76.5 76.5-76.5 76.5 33.15 76.5 76.5zM51 255c0-38.25 10.2-71.4 28.05-102l89.25 153c17.85 30.6 51 51 86.7 51 12.75 0 22.95-2.55 33.15-5.1l-61.2 104.55C127.5 443.7 51 357 51 255zm204 204l89.25-153c7.65-15.3 15.3-33.15 15.3-51 0-30.6-12.75-58.65-35.7-76.5h122.4c10.2 22.95 15.3 48.45 15.3 76.5C459 367.2 367.2 459 255 459z"/></svg>