<svg xmlns="http://www.w3.org/2000/svg" width="510" height="510"><path d="M459 76.5h-81.6l-45.9-51h-153l-45.9 51H51c-28.05 0-51 22.95-51 51v306c0 28.05 22.95 51 51 51h408c28.05 0 51-22.95 51-51v-306c0-28.05-22.95-51-51-51zM255 153c40.8 0 79.05 20.4 102 51H255c-43.35 0-76.5 33.15-76.5 76.5 0 10.2 2.55 17.85 5.1 25.5h-53.55c-2.55-7.65-2.55-17.85-2.55-25.5 0-71.4 56.1-127.5 127.5-127.5zm0 255c-40.8 0-79.05-20.4-102-51h102c43.35 0 76.5-33.15 76.5-76.5 0-10.2-2.55-17.85-5.1-25.5h53.55c2.55 7.65 2.55 17.85 2.55 25.5 0 71.4-56.1 127.5-127.5 127.5z"/></svg>