<svg xmlns="http://www.w3.org/2000/svg" width="561" height="561"><path d="M507.45 255C494.7 147.9 410.55 63.75 306 53.55V0h-51v53.55c-28.05 2.55-56.1 10.2-81.6 22.95l38.25 38.25C234.6 107.1 257.55 102 280.5 102c99.45 0 178.5 79.05 178.5 178.5 0 22.95-5.1 45.9-12.75 68.85l38.25 38.25c12.75-25.5 20.4-51 25.5-81.6h51v-51h-53.55zM51 84.15l51 51C76.5 168.3 58.65 209.1 53.55 255H0v51h53.55C66.3 413.1 150.45 497.25 255 507.45V561h51v-53.55c45.9-5.101 86.7-22.95 119.85-51l51 51L510 474.3 84.15 51 51 84.15zm339.15 336.6C359.55 446.25 321.3 459 280.5 459 181.05 459 102 379.95 102 280.5c0-40.8 12.75-79.05 38.25-109.65l249.9 249.9z"/></svg>