<svg id="Capa_1" enable-background="new 0 0 512 512" height="512" viewBox="0 0 512 512" width="512" xmlns="http://www.w3.org/2000/svg"><g><path d="m497 482h-18v-266c0-21.505-17.495-39-39-39h-48c-21.505 0-39 17.495-39 39v266h-34v-207.383c0-17.985-14.632-32.617-32.617-32.617h-60.766c-17.985 0-32.617 14.632-32.617 32.617v207.383h-34v-142.021c0-18.736-15.243-33.979-33.979-33.979h-58.042c-18.736 0-33.979 15.243-33.979 33.979v142.021h-18c-8.284 0-15 6.716-15 15s6.716 15 15 15h482c8.284 0 15-6.716 15-15s-6.716-15-15-15z"/><path d="m15.032 192h28.776c6.56 18.062 23.892 31 44.192 31 26.737 0 48.272-22.425 46.94-49.346l85.079-33.459c29.02 34.524 85.192 12.019 82.919-32.612l77.131-30.33c23.71 28.115 68.785 19.316 80.462-15.253h36.447c8.284 0 15-6.716 15-15s-6.716-15-15-15h-36.447c-6.276-18.58-23.86-32-44.531-32-26.737 0-48.27 22.423-46.94 49.346l-77.175 30.348c-28.849-34.106-84.973-12.333-82.827 32.575l-85.128 33.478c-24.131-28.614-69.827-18.843-80.8 16.253h-28.098c-8.284 0-15 6.716-15 15s6.716 15 15 15z"/></g></svg>