<svg xmlns="http://www.w3.org/2000/svg" width="535.5" height="535.5"><path d="M446.25 0h-357c-28.05 0-51 22.95-51 51v357c0 28.05 22.95 51 51 51h102l76.5 76.5 76.5-76.5h102c28.05 0 51-22.95 51-51V51c0-28.05-22.95-51-51-51zm-153 408h-51v-51h51v51zm53.55-196.35l-22.95 22.95c-20.399 17.85-30.6 33.15-30.6 71.4h-51v-12.75c0-28.05 10.2-53.55 30.6-71.4l30.601-33.15c10.2-7.65 15.3-20.4 15.3-35.7 0-28.05-22.95-51-51-51s-51 22.95-51 51h-51c0-56.1 45.9-102 102-102s102 45.9 102 102c-.001 22.95-10.201 43.35-22.951 58.65z"/></svg>