<svg xmlns="http://www.w3.org/2000/svg" width="535.5" height="535.5"><path d="M165.75 91.8l63.75 35.7-35.701-63.75L229.5 0l-63.75 35.7L102 0l35.7 63.75L102 127.5zM471.75 341.7L408 306l35.7 63.75L408 433.5l63.75-35.7 63.75 35.7-35.7-63.75L535.5 306zM535.5 0l-63.75 35.7L408 0l35.7 63.75L408 127.5l63.75-35.7 63.75 35.7-35.7-63.75zM341.7 135.15c-10.2-10.2-25.5-10.2-35.7 0L7.649 433.5c-10.2 10.2-10.2 25.5 0 35.7l58.65 58.649c10.2 10.2 25.5 10.2 35.7 0L400.35 229.5c10.2-10.2 10.2-25.5 0-35.7l-58.65-58.65zM313.65 275.4l-53.55-53.55 61.2-61.2 53.55 53.55-61.2 61.2z"/></svg>