<svg xmlns="http://www.w3.org/2000/svg" width="617.1" height="617.1"><path d="M165.75 144.075L306 284.325l178.5-178.5-25.5-25.5-153 153-114.75-114.75h89.25v-38.25h-153v153h38.25v-89.25zm438.6 285.599c-76.5-73.949-183.6-119.85-298.35-119.85s-221.85 45.9-298.35 119.85c-5.1 5.101-7.65 10.2-7.65 17.851 0 7.649 2.55 12.75 7.65 17.85l63.75 63.75c5.1 5.101 10.2 7.65 17.85 7.65s12.75-2.55 17.85-7.65c20.4-17.85 43.35-35.7 68.85-48.45 7.65-5.1 15.3-12.75 15.3-22.949v-79.051c35.7-12.75 76.5-17.85 117.3-17.85s81.601 7.65 117.3 17.85v79.051c0 10.199 5.101 17.85 15.301 22.949 25.5 12.75 48.449 28.051 68.85 48.45 5.1 5.101 10.2 7.65 17.85 7.65 7.65 0 12.75-2.55 17.851-7.65l63.75-63.75c5.1-5.1 7.649-10.2 7.649-17.85-.001-7.65-7.651-12.75-12.751-17.851z"/></svg>