<svg xmlns="http://www.w3.org/2000/svg" width="510" height="510"><path d="M323.85 216.75l58.65-58.65V255h12.75l73.95-73.95-56.1-53.55 53.551-53.55L395.25 0H382.5v96.9l-58.65-58.65L306 56.1l71.4 71.4-71.4 71.4 17.85 17.85zM408 48.45l22.95 22.95L408 96.9V48.45zm0 109.65l22.95 22.95-22.95 25.5V158.1zm51 211.65c-30.6 0-61.2-5.1-91.8-15.3-7.65-2.55-17.851 0-25.5 5.1l-56.1 56.1c-71.399-35.7-130.05-96.9-168.3-168.3l56.1-56.1c7.65-7.65 10.2-17.85 5.1-25.5-7.65-28.05-12.75-58.65-12.75-89.25 0-15.3-10.2-25.5-25.5-25.5H51c-15.3 0-25.5 10.2-25.5 25.5C25.5 316.2 219.3 510 459 510c15.3 0 25.5-10.2 25.5-25.5v-89.25c0-15.3-10.2-25.5-25.5-25.5z"/></svg>