<svg xmlns="http://www.w3.org/2000/svg" width="510" height="510"><path d="M459 369.75c-30.6 0-61.2-5.1-91.8-15.3-7.65-2.55-17.851 0-25.5 5.1l-56.1 56.1c-71.399-35.7-130.05-96.9-168.3-168.3l56.1-56.1c7.65-7.65 10.2-17.85 5.1-25.5-7.65-28.05-12.75-58.65-12.75-89.25 0-15.3-10.2-25.5-25.5-25.5H51c-15.3 0-25.5 10.2-25.5 25.5C25.5 316.2 219.3 510 459 510c15.3 0 25.5-10.2 25.5-25.5v-89.25c0-15.3-10.2-25.5-25.5-25.5zm0-293.25V63.75C459 28.05 430.95 0 395.25 0S331.5 28.05 331.5 63.75V76.5c-15.3 0-25.5 10.2-25.5 25.5v102c0 15.3 10.2 25.5 25.5 25.5H459c15.3 0 25.5-10.2 25.5-25.5V102c0-15.3-10.2-25.5-25.5-25.5zm-20.4 0h-86.7V63.75c0-22.95 20.399-43.35 43.35-43.35s43.35 20.4 43.35 43.35V76.5z"/></svg>