<svg xmlns="http://www.w3.org/2000/svg" width="510" height="510"><path d="M459 0H51C22.95 0 0 22.95 0 51v408c0 28.05 22.95 51 51 51h408c28.05 0 51-22.95 51-51V51c0-28.05-22.95-51-51-51zM280.5 362.1c-20.4 0-40.8-7.649-53.55-22.949l-25.5 81.6-2.55 5.1c-5.1 7.65-12.75 12.75-22.95 12.75-15.3 0-28.05-12.75-28.05-28.05v-2.55l2.55-5.1 45.9-142.801s-5.1-15.3-5.1-38.25c0-43.35 22.95-56.1 43.35-56.1 17.85 0 35.7 7.65 35.7 33.15 0 33.15-22.95 51-22.95 76.5 0 17.85 15.3 33.149 33.15 33.149 58.65 0 81.6-45.899 81.6-86.7 0-56.1-48.449-102-107.1-102-58.65 0-107.1 45.9-107.1 102 0 17.85 5.1 33.15 12.75 48.45 2.55 5.101 2.55 7.65 2.55 12.75 0 15.3-10.2 25.5-25.5 25.5-10.2 0-17.85-5.1-22.95-12.75-12.75-22.95-20.4-48.45-20.4-76.5 0-84.15 71.4-153 158.1-153s158.1 68.85 158.1 153C413.1 290.7 372.3 362.1 280.5 362.1z"/></svg>