<svg xmlns="http://www.w3.org/2000/svg" width="510" height="510"><path d="M255 0C114.75 0 0 114.75 0 255s114.75 255 255 255 255-114.75 255-255S395.25 0 255 0zm0 464.1c-28.05 0-56.1-5.1-81.6-15.3-15.3-38.25-15.3-66.3 28.05-53.55 0 0 99.45 38.25 204 2.55-35.7 40.8-89.25 66.3-150.45 66.3zm181.05-104.55c-22.95 10.2-53.55 25.5-102 25.5s-89.25-20.399-142.8-35.7c-48.45-15.3-66.3-38.25-96.9-38.25-17.85 0-25.5 17.851-30.6 30.601C51 316.2 43.35 285.6 43.35 255c0-20.4 2.55-40.8 7.65-58.65 33.15-40.8 81.6-66.3 153-10.2 0 0 158.1 119.85 249.9 127.5-2.55 15.3-10.2 30.6-17.85 45.9zM265.2 142.8c-71.4-68.85-130.05-48.45-155.55-38.25 17.85-17.85 40.8-33.15 66.3-43.35 71.4-2.55 150.45 10.2 193.8 73.95 0 0 61.2 107.1 84.15 58.65 5.1 17.85 7.649 38.25 7.649 58.65v22.95C410.55 270.3 339.15 211.65 265.2 142.8z"/></svg>