<svg xmlns="http://www.w3.org/2000/svg" width="484.5" height="484.5"><path d="M242.25 0c-112.2 0-204 12.75-204 102v242.25c0 48.45 40.8 89.25 89.25 89.25l-38.25 38.25v12.75h306v-12.75L357 433.5c48.45 0 89.25-40.8 89.25-89.25V102c0-89.25-91.8-102-204-102zM127.5 382.5c-20.4 0-38.25-17.85-38.25-38.25S107.1 306 127.5 306s38.25 17.85 38.25 38.25-17.85 38.25-38.25 38.25zm89.25-153H89.25V102h127.5v127.5zM357 382.5c-20.4 0-38.25-17.85-38.25-38.25S336.6 306 357 306s38.25 17.85 38.25 38.25S377.4 382.5 357 382.5zm38.25-153h-127.5V102h127.5v127.5z"/></svg>