<svg height="512pt" viewBox="0 -33 512 512" width="512pt" xmlns="http://www.w3.org/2000/svg"><path d="m401.886719 148.742188v203.113281h-171.703125v47.0625h130.5l46.246094 46.242187 46.242187-46.242187h58.828125v-250.175781zm0 0"/><path d="m231.835938 160.929688c0-25.308594-20.585938-45.894532-45.890626-45.894532-25.304687 0-45.894531 20.585938-45.894531 45.894532 0 25.304687 20.589844 45.890624 45.894531 45.890624 25.304688 0 45.890626-20.585937 45.890626-45.890624zm0 0"/><path d="m371.886719 321.855469v-321.855469h-371.886719v321.855469h58.828125l46.242187 46.246093 46.246094-46.246093zm-200.941407-60.035157v-26.496093c-9.804687-1.972657-18.925781-5.84375-26.976562-11.207031l-18.757812 18.757812-21.214844-21.210938 18.761718-18.761718c-5.367187-8.046875-9.238281-17.171875-11.210937-26.972656h-26.496094v-30h26.496094c1.976563-9.804688 5.847656-18.925782 11.210937-26.976563l-18.761718-18.761719 21.214844-21.210937 18.757812 18.757812c8.050781-5.363281 17.171875-9.234375 26.976562-11.207031v-26.496094h30v26.496094c9.800782 1.972656 18.925782 5.84375 26.972657 11.207031l18.761719-18.757812 21.210937 21.210937-18.757813 18.761719c5.363282 8.046875 9.234376 17.167969 11.207032 26.972656h26.496094v30h-26.496094c-1.972656 9.804688-5.84375 18.925781-11.207032 26.976563l18.757813 18.757812-21.210937 21.214844-18.761719-18.761719c-8.046875 5.367188-17.171875 9.238281-26.976563 11.210938v26.496093zm0 0"/></svg>