<svg xmlns="http://www.w3.org/2000/svg" width="617.1" height="617.1"><path d="M604.35 442.424c-76.5-73.949-183.6-119.85-298.35-119.85s-221.85 45.9-298.35 119.85c-5.1 5.101-7.65 10.2-7.65 17.851 0 7.649 2.55 12.75 7.65 17.85l63.75 63.75c5.1 5.101 10.2 7.65 17.85 7.65s12.75-2.55 17.85-7.65c20.4-17.85 43.35-35.7 68.85-48.45 7.65-5.1 15.3-12.75 15.3-22.949v-79.051c35.7-12.75 76.5-17.85 117.3-17.85s79.05 7.65 117.3 17.85v79.051c0 10.199 5.101 17.85 15.301 22.949 25.5 12.75 48.449 28.051 68.85 48.45 5.1 5.101 10.2 7.65 17.85 7.65 7.65 0 12.75-2.55 17.851-7.65l63.75-63.75c5.1-5.1 7.649-10.2 7.649-17.85-5.101-7.65-7.651-12.75-12.751-17.851zM540.6 177.225l-35.699-35.7-91.801 91.8 35.7 35.7c0-2.55 86.7-91.8 91.8-91.8zM331.5 67.575h-51v127.5h51v-127.5zm-168.3 198.9l35.7-35.7-89.25-91.8-38.25 38.25c5.1 0 91.8 89.25 91.8 89.25z"/></svg>