<svg xmlns="http://www.w3.org/2000/svg" width="481.95" height="481.95"><path d="M114.75 191.25l-35.7-35.7C56.1 186.15 40.8 219.3 38.25 255h51c2.55-22.95 12.75-43.35 25.5-63.75zM89.25 306h-51c5.1 35.7 17.85 68.85 40.8 99.45l35.7-35.7C102 349.35 91.8 328.95 89.25 306zm25.5 135.15c30.6 22.949 63.75 35.699 99.45 40.8v-51c-22.95-2.55-43.35-12.75-63.75-25.5l-35.7 35.7zM265.2 79.05V0L150.45 114.75 265.2 229.5v-99.45C336.6 142.8 392.7 204 392.7 280.5s-56.1 137.7-127.5 150.45v51c99.45-12.75 178.5-99.45 178.5-201.45S364.65 91.8 265.2 79.05z"/></svg>