<svg xmlns="http://www.w3.org/2000/svg" width="586.5" height="586.5"><path d="M572.942 326.4l-66.301-66.3-35.699 35.7 56.1 56.101-145.35 145.35L93.542 209.1l145.35-145.35 53.55 53.55 35.699-35.7-61.2-61.2c-15.3-15.3-38.25-15.3-53.55 0L47.642 181.05c-15.3 15.3-15.3 38.25 0 53.55l306 306c15.301 15.301 38.25 15.301 53.551 0l163.199-163.2c15.3-12.75 15.3-35.7 2.55-51zm-377.4 196.35c-84.15-38.25-142.8-119.85-153-216.75H4.292c12.75 158.1 145.35 280.5 303.45 280.5h17.85l-96.9-96.9-33.15 33.15zm191.25-293.25h127.5c15.3 0 25.5-10.2 25.5-25.5V102c0-15.3-10.2-25.5-25.5-25.5V63.75c0-35.7-28.05-63.75-63.75-63.75s-63.75 28.05-63.75 63.75V76.5c-15.3 0-25.5 10.2-25.5 25.5v102c0 15.3 10.2 25.5 25.5 25.5zm20.4-165.75c0-22.95 20.399-43.35 43.35-43.35s43.35 20.4 43.35 43.35V76.5h-86.699V63.75h-.001z"/></svg>