<svg xmlns="http://www.w3.org/2000/svg" width="459" height="459"><path d="M0 51h51V0C22.95 0 0 22.95 0 51zm0 204h51v-51H0v51zm102 204h51v-51h-51v51zM0 153h51v-51H0v51zM255 0h-51v51h51V0zm153 0v51h51c0-28.05-22.95-51-51-51zM51 459v-51H0c0 28.05 22.95 51 51 51zM0 357h51v-51H0v51zM153 0h-51v51h51V0zm51 459h51v-51h-51v51zm204-204h51v-51h-51v51zm0 204c28.05 0 51-22.95 51-51h-51v51zm0-306h51v-51h-51v51zm0 204h51v-51h-51v51zM306 459h51v-51h-51v51zm0-408h51V0h-51v51zM102 357h255V102H102v255zm51-204h153v153H153V153z"/></svg>