<svg xmlns="http://www.w3.org/2000/svg" width="515.1" height="515.1"><path d="M512.55 99.45L395.25 0 362.1 38.25l117.3 99.45 33.15-38.25zM153 40.8L119.85 2.55 2.55 99.45 35.7 137.7 153 40.8zm117.3 117.3h-38.25v153l119.85 73.951 20.4-30.602-102-61.199V158.1zm-12.75-102c-127.5 0-229.5 102-229.5 229.5s102 229.5 229.5 229.5 229.5-102 229.5-229.5-102-229.5-229.5-229.5zm0 408c-99.45 0-178.5-79.049-178.5-178.5 0-99.45 79.05-178.5 178.5-178.5s178.5 79.05 178.5 178.5c0 99.451-79.05 178.5-178.5 178.5z"/></svg>