<svg xmlns="http://www.w3.org/2000/svg" width="459" height="459"><path d="M229.5 178.5c-28.05 0-51 22.95-51 51s22.95 51 51 51 51-22.95 51-51-22.95-51-51-51zM408 0H51C22.95 0 0 22.95 0 51v357c0 28.05 22.95 51 51 51h357c28.05 0 51-22.95 51-51V51c0-28.05-22.95-51-51-51zm-45.9 229.5v17.85l38.25 30.601c2.551 2.55 5.101 7.649 2.551 10.2l-35.7 61.199c-2.55 5.101-7.65 5.101-10.2 5.101L313.65 336.6c-10.2 7.65-20.4 12.75-30.601 17.851L275.4 402.9c0 5.1-5.101 7.649-7.65 7.649h-71.4c-5.1 0-7.65-2.55-7.65-7.649l-10.2-48.45c-10.2-5.101-20.4-10.2-30.6-17.851l-43.35 17.851c-5.1 2.55-7.65 0-10.2-5.101l-35.7-61.199c-2.55-5.101 0-7.65 2.55-10.2l38.25-30.601v-17.85-17.85l-38.25-30.6c-2.55-2.55-5.1-7.65-2.55-10.2l35.7-61.2c2.55-5.1 7.65-5.1 10.2-5.1l43.35 17.85c10.2-5.1 20.4-12.75 30.6-17.85l7.65-48.45c0-5.1 5.1-7.65 7.65-7.65h71.4c5.1 0 7.649 2.55 7.649 7.65l7.65 48.45c10.2 5.1 20.4 10.2 30.6 17.85l43.351-17.85c5.1-2.55 7.649 0 10.2 5.1l35.699 61.2c2.551 5.1 0 7.65-2.55 10.2l-38.25 30.6C362.1 216.75 362.1 224.4 362.1 229.5z"/></svg>