<svg xmlns="http://www.w3.org/2000/svg" width="561" height="561"><path d="M147.9 109.65L102 63.75 63.75 102l45.9 45.9 38.25-38.25zM76.5 255H0v51h76.5v-51zM306 2.55h-51V76.5h51V2.55zM497.25 102L459 63.75l-45.9 45.9 35.7 35.7L497.25 102zM413.1 451.35l45.9 45.9 35.7-35.7-45.9-45.899-35.7 35.699zM484.5 255v51H561v-51h-76.5zm-204-127.5c-84.15 0-153 68.85-153 153s68.85 153 153 153 153-68.85 153-153-68.85-153-153-153zM255 558.45h51V484.5h-51v73.95zM63.75 459L102 497.25l45.9-45.9-35.7-35.699L63.75 459z"/></svg>