<svg xmlns="http://www.w3.org/2000/svg" width="612" height="612"><path d="M433.5 280.5c15.3 0 25.5-10.2 25.5-25.5s-10.2-25.5-25.5-25.5S408 239.7 408 255s10.2 25.5 25.5 25.5zm-51 127.5c48.45 0 86.7-33.15 96.9-76.5H285.6c10.2 43.35 48.45 76.5 96.9 76.5zm-51-127.5c15.3 0 25.5-10.2 25.5-25.5s-10.2-25.5-25.5-25.5S306 239.7 306 255s10.2 25.5 25.5 25.5zM561 76.5H193.8c-15.3 0-30.6 7.65-40.8 20.4L0 306l153 209.1c10.2 12.75 25.5 20.4 40.8 20.4H561c28.05 0 51-22.95 51-51v-357c0-28.05-22.95-51-51-51zm-459 255c-15.3 0-25.5-10.2-25.5-25.5s10.2-25.5 25.5-25.5 25.5 10.2 25.5 25.5-10.2 25.5-25.5 25.5zM382.5 459c-84.15 0-153-68.85-153-153s68.85-153 153-153 153 68.85 153 153-68.85 153-153 153z"/></svg>