<svg xmlns="http://www.w3.org/2000/svg" width="510" height="510"><path d="M255 0C114.75 0 0 114.75 0 255s114.75 255 255 255 255-114.75 255-255S395.25 0 255 0zm0 76.5c40.8 0 76.5 12.75 107.1 35.7L306 168.3c-15.3-10.2-33.15-15.3-51-15.3-56.1 0-102 45.9-102 102 0 28.05 10.2 53.55 30.6 71.4l-53.55 53.55C96.9 349.35 76.5 303.45 76.5 255c0-99.45 79.05-178.5 178.5-178.5zm124.95 303.45L326.4 326.4c17.85-17.85 30.6-43.35 30.6-71.4 0-17.85-5.1-35.7-15.3-51l56.1-56.1c22.95 30.6 35.7 66.3 35.7 107.1 0 48.45-20.4 94.35-53.55 124.95z"/></svg>