<svg xmlns="http://www.w3.org/2000/svg" width="459" height="459"><path d="M433.5 178.5H357v-28.05c43.35-10.2 76.5-51 76.5-99.45H357V25.5C357 10.2 346.8 0 331.5 0h-204C112.2 0 102 10.2 102 25.5V51H25.5c0 48.45 33.15 86.7 76.5 99.45v28.05H25.5c0 48.45 33.15 86.7 76.5 99.45V306H25.5c0 48.45 33.15 86.7 76.5 99.45v28.05c0 15.3 10.2 25.5 25.5 25.5h204c15.3 0 25.5-10.2 25.5-25.5v-28.05c43.35-10.2 76.5-51 76.5-99.45H357v-28.05c43.35-12.75 76.5-51 76.5-99.45zM229.5 408c-28.05 0-51-22.95-51-51s22.95-51 51-51 51 22.95 51 51-22.95 51-51 51zm0-127.5c-28.05 0-51-22.95-51-51s22.95-51 51-51 51 22.95 51 51-22.95 51-51 51zm0-127.5c-28.05 0-51-22.95-51-51s22.95-51 51-51 51 22.95 51 51-22.95 51-51 51z"/></svg>