<svg xmlns="http://www.w3.org/2000/svg" width="484.5" height="484.5"><path d="M420.75 229.5H377.4c0 17.85-5.101 35.7-10.2 51l30.6 30.6c15.3-22.95 22.95-51 22.95-81.6zM318.75 234.6V76.5c0-43.35-33.15-76.5-76.5-76.5s-76.5 33.15-76.5 76.5v5.1l153 153zM45.9 25.5L12.75 58.65l153 153v17.85c0 43.35 33.15 76.5 76.5 76.5 5.1 0 10.2 0 17.85-2.55l43.351 43.35c-17.851 7.65-38.25 12.75-58.65 12.75-71.4 0-135.15-53.55-135.15-130.05h-45.9c0 86.7 68.85 158.1 153 170.85v84.15h51v-84.15c22.95-2.55 45.9-12.75 63.75-22.949l107.1 107.1 33.15-33.15L45.9 25.5z"/></svg>