<svg xmlns="http://www.w3.org/2000/svg" width="558.45" height="558.45"><path d="M280.5 138.975c71.4 0 127.5 56.1 127.5 127.5 0 15.3-2.55 33.15-10.2 45.9l73.95 73.949c38.25-33.149 68.85-73.949 86.7-119.85-43.351-112.2-153-191.25-280.5-191.25-35.7 0-68.85 7.65-102 17.85l56.1 56.1c15.3-7.649 33.15-10.199 48.45-10.199zm-255-68.85l58.65 58.65 10.2 10.2c-43.35 33.15-76.5 76.5-94.35 127.5 43.35 112.2 153 191.25 280.5 191.25 38.25 0 76.5-7.65 112.2-20.4l10.2 10.2 73.949 73.95 33.15-33.15L58.65 36.975 25.5 70.125zm140.25 140.25l38.25 38.25v17.85c0 43.35 33.15 76.5 76.5 76.5 5.1 0 10.2 0 17.85-2.55l38.25 38.25c-17.85 10.2-35.699 15.3-56.1 15.3-71.4 0-127.5-56.1-127.5-127.5 0-20.4 5.1-38.25 12.75-56.1zm109.65-20.4l79.05 79.05v-5.1c0-43.35-33.15-76.5-76.5-76.5 0 2.55 0 2.55-2.55 2.55z"/></svg>