<svg xmlns="http://www.w3.org/2000/svg" width="561" height="561"><path d="M535.5 76.5V63.75C535.5 28.05 507.45 0 471.75 0S408 28.05 408 63.75V76.5c-15.3 0-25.5 10.2-25.5 25.5v102c0 15.3 10.2 25.5 25.5 25.5h127.5c15.3 0 25.5-10.2 25.5-25.5V102c0-15.3-10.2-25.5-25.5-25.5zm-20.4 0h-86.7V63.75c0-22.95 20.399-43.35 43.35-43.35s43.35 20.4 43.35 43.35V76.5zm-58.65 204c0 7.65 2.55 17.85 2.55 25.5 0 53.55-20.4 102-53.55 137.7-7.65-20.4-25.5-35.7-48.45-35.7h-25.5v-76.5c0-15.3-10.2-25.5-25.5-25.5H153v-51h51c15.3 0 25.5-10.2 25.5-25.5v-51h51c28.05 0 51-22.95 51-51V63.75C308.55 56.1 280.5 51 255 51 114.75 51 0 165.75 0 306s114.75 255 255 255 255-114.75 255-255c0-7.65 0-17.85-2.55-25.5h-51zM229.5 507.45C130.05 494.7 51 408 51 306c0-15.3 2.55-30.6 5.1-45.9l122.4 122.4V408c0 28.05 22.95 51 51 51v48.45z"/></svg>