<svg xmlns="http://www.w3.org/2000/svg" width="612" height="612"><path d="M471.75 165.75c-76.5 0-140.25 63.75-140.25 140.25 0 33.15 12.75 63.75 33.15 89.25h-117.3c20.4-25.5 33.15-56.1 33.15-89.25 0-76.5-63.75-140.25-140.25-140.25S0 229.5 0 306s63.75 140.25 140.25 140.25h331.5C548.25 446.25 612 382.5 612 306s-63.75-140.25-140.25-140.25zm-331.5 229.5C91.8 395.25 51 354.45 51 306s40.8-89.25 89.25-89.25 89.25 40.8 89.25 89.25-40.8 89.25-89.25 89.25zm331.5 0c-48.45 0-89.25-40.8-89.25-89.25s40.8-89.25 89.25-89.25S561 257.55 561 306s-40.8 89.25-89.25 89.25z"/></svg>