<svg xmlns="http://www.w3.org/2000/svg" width="510" height="510"><path d="M255 221.85c-28.05 0-51 22.95-51 51s22.95 51 51 51 51-22.95 51-51-22.95-51-51-51zm153 51c0-84.15-68.85-153-153-153s-153 68.85-153 153c0 56.1 30.6 104.55 76.5 132.6L204 362.1c-30.6-17.85-51-51-51-86.7 0-56.1 45.9-102 102-102s102 45.9 102 102c0 38.25-20.4 71.4-51 86.7l25.5 43.35c45.9-28.05 76.5-76.5 76.5-132.6zm-153-255c-140.25 0-255 114.75-255 255 0 94.35 51 175.95 127.5 219.3L153 448.8c-61.2-35.7-102-102-102-175.95 0-112.2 91.8-204 204-204s204 91.8 204 204c0 76.5-40.8 140.25-102 175.95l25.5 43.35C459 448.8 510 364.65 510 272.85c0-140.25-114.75-255-255-255z"/></svg>