<svg xmlns="http://www.w3.org/2000/svg" width="18" height="18"><path fill="#8093A8" d="M0 2.948v8.38c0 1.63 1.2 2.949 2.682 2.949h4.024L6.846 18l3.954-3.723h4.518c1.481 0 2.682-1.319 2.682-2.949v-8.38C18 1.318 16.8 0 15.318 0H2.682C1.201 0 0 1.319 0 2.948zm11.577 4.655c0-.777.564-1.397 1.27-1.397.708 0 1.272.62 1.272 1.397S13.553 9 12.848 9c-.707 0-1.271-.62-1.271-1.397zm-3.883 0c0-.777.564-1.397 1.27-1.397.707 0 1.272.62 1.272 1.397S9.67 9 8.965 9c-.707 0-1.271-.62-1.271-1.397zm-3.811 0c0-.777.564-1.397 1.27-1.397.708 0 1.272.62 1.272 1.397S5.859 9 5.152 9c-.705 0-1.269-.62-1.269-1.397z"/></svg>