<svg xmlns="http://www.w3.org/2000/svg" width="18" height="18" viewBox="0 0 18 18">
    <path fill="#8093A8" d="M4.755 6.744l1.72 1.72c-.252.352-.489.735-.717 1.155l-.051.095 1.218 1.612c.242.237.367.704.252 1.097l-.047.147c-.247.785-.373 1.61-.373 2.45 0 .623-.496 1.13-1.112 1.151H2.979c-.635 0-1.15-.515-1.15-1.15 0-3.132 1.096-6.012 2.926-8.277zM3.034 2.238l12.728 12.728c.22.22.22.576 0 .796-.22.22-.576.22-.796 0L2.238 3.034c-.22-.22-.22-.576 0-.796.22-.22.576-.22.796 0zm11.987-.41c.622 0 1.13.496 1.15 1.112v2.673c0 .623-.497 1.132-1.115 1.15l-.035.001c-.879 0-1.74.138-2.562.41-.406.127-.837.028-1.142-.255l-.033-.031-1.57-1.182c-.458.243-.872.496-1.252.767L6.744 4.755c2.265-1.83 5.145-2.927 8.277-2.927z"/>
</svg>
