<svg xmlns="http://www.w3.org/2000/svg" width="18" height="18"><path fill="#8093A8" d="M3.937 1.688c.311 0 .563.252.563.563a10.431 10.431 0 001.035 4.58l.021.043a.563.563 0 01-.247.748l-.013.006-2.532 1.225a14.184 14.184 0 005.82 5.82l1.225-2.534a.567.567 0 01.323-.287.575.575 0 01.431.027 10.45 10.45 0 004.624 1.059c.31 0 .562.252.562.562v3.375c0 .31-.252.563-.562.563a15.086 15.086 0 01-6.525-1.467l-.064-.03a15.302 15.302 0 01-7.09-7.077l-.013-.025A15.122 15.122 0 010 2.25c0-.31.252-.563.563-.563h3.374zM14.061.563c.15 0 .293.059.399.165l3.375 3.375c.217.216.22.565.01.786l-.01.01-3.375 3.375a.561.561 0 01-.961-.398V6.188h-.927a5.05 5.05 0 00-4.211 2.25l-.58.87a.566.566 0 01-.632.231.563.563 0 01-.4-.538 6.195 6.195 0 016.188-6.188h.562V1.126c0-.31.251-.563.562-.563z"/></svg>