<svg xmlns="http://www.w3.org/2000/svg" width="18" height="18"><path fill="#8093A8" d="M17.69 1.969H.31a.31.31 0 00-.31.308v13.565c0 .17.139.309.31.309h17.38a.31.31 0 00.31-.309V2.277a.31.31 0 00-.31-.308zM3.273 15.605H.545v-2.727h2.728v2.727zm0-3.273H.545V9.605h2.728v2.727zm0-3.818H.545V5.787h2.728v2.727zm0-3.273H.545V2.514h2.728v2.727zm8.046 4.35L8.088 11.74a.284.284 0 01-.299.01.31.31 0 01-.153-.269V7.185c0-.112.059-.215.153-.27a.287.287 0 01.3.01l3.23 2.148a.314.314 0 010 .518zm6.136 6.014h-2.728v-2.727h2.728v2.727zm0-3.273h-2.728V9.605h2.728v2.727zm0-3.818h-2.728V5.787h2.728v2.727zm0-3.273h-2.728V2.514h2.728v2.727z"/></svg>