<svg xmlns="http://www.w3.org/2000/svg" width="74" height="67"><g fill="none" transform="translate(-.938)"><path fill="#FFF4BD" d="M46.055 54.292c3.35-5.29 6.135-8.385 8.357-9.282 3.332-1.346 5.058-6.65 4.549-10.988-.51-4.338 6.961-4.33 9.946-7.76 2.985-3.432 1.785 6.198-1.535 8.68-3.32 2.482-3.815 3.418-1.784 8.445 1.354 3.351-5.157 6.986-19.533 10.905z"/><path fill="#FFE978" d="M68.715 28.925a.16.16 0 00-.227-.222c-4.555 4.655-6.626 8.14-6.195 10.491.754 4.11-.677 8.831-4.27 11.741-.068.055-.078.155-.023.223s.154.078.222.023c3.653-2.958 5.127-7.73 4.405-11.917l-.022-.127c-.406-2.212 1.624-5.628 6.11-10.212z"/><path fill="#EDF3F7" d="M55.651 64.721c2.252-.85 3.472-2.03 3.657-3.543.279-2.269-.393-3.435 1.311-4.705 1.704-1.271 3.646 2.04 5.714.007 2.068-2.034-.005-6.225 2.287-7.224 2.292-.999 7.605-1.93 5.919-7.073-1.686-5.144-7.172 2.703-8.929 2.488-1.757-.216-4.415-3.247-7.386-.907-2.97 2.34-1.361 11.553-3.64 11.273-2.279-.28-3.68 1.405-4.033 4.284-.236 1.92 1.464 3.72 5.1 5.4z"/><path fill="#BEDEF4" d="M58.402 58.025l-.013-.004-5.297-1.222a.12.12 0 00-.068.231l.013.004 5.3 1.222a.12.12 0 00.144-.09.121.121 0 00-.077-.141zm15.146-14.31l-.477.224c-5.026 2.374-7.962 3.97-8.84 4.808l-.053.052c-.316.306-.877.782-1.685 1.428l.272-5.208a.12.12 0 00-.24-.027l-.002.015-.282 5.42c-1.307 1.038-3.185 2.469-5.632 4.292l-.838.623a.121.121 0 00-.025.169c.04.053.116.064.17.025l.955-.711c1.056-.788 2.005-1.5 2.846-2.14l5.196 1.391a.122.122 0 00.148-.085.121.121 0 00-.072-.144l-.014-.004L59.96 52.5c2.291-1.745 3.743-2.911 4.359-3.502l.08-.078c.608-.58 2.275-1.556 4.99-2.923l.005.002.01.003 3.529.779c.043.01.094-.035.113-.098.017-.06.002-.115-.035-.13l-.01-.003-3.274-.723a182.989 182.989 0 013.454-1.673l.47-.221a.12.12 0 00.058-.16.121.121 0 00-.161-.059z"/><path fill="#FFF4BD" d="M30.615 54.292c-3.349-5.29-6.135-8.384-8.356-9.283-3.332-1.345-5.058-6.65-4.548-10.987.509-4.338-6.963-4.33-9.947-7.762-2.985-3.429-1.785 6.2 1.534 8.683 3.32 2.481 3.817 3.419 1.786 8.445-1.355 3.351 5.157 6.987 19.532 10.905z"/><path fill="#FFE978" d="M7.956 28.924a.16.16 0 01.003-.224.16.16 0 01.224.003c4.554 4.655 6.626 8.14 6.195 10.491-.755 4.11.677 8.831 4.27 11.74a.16.16 0 01.023.224.158.158 0 01-.222.024c-3.653-2.96-5.127-7.731-4.405-11.919l.022-.126c.406-2.212-1.625-5.629-6.11-10.213z"/><path fill="#EDF3F7" d="M21.019 64.72c-2.252-.849-3.472-2.03-3.657-3.542-.278-2.269.393-3.435-1.311-4.706-1.704-1.27-3.646 2.041-5.714.008-2.067-2.034.004-6.226-2.287-7.224-2.292-1-7.605-1.93-5.918-7.074 1.685-5.142 7.172 2.704 8.928 2.488 1.757-.216 4.415-3.246 7.386-.907 2.972 2.34 1.361 11.553 3.64 11.273 2.28-.28 3.68 1.406 4.034 4.285.235 1.92-1.465 3.719-5.1 5.399z"/><path fill="#BEDEF4" d="M18.267 58.025l.014-.004 5.298-1.222a.122.122 0 01.146.09.12.12 0 01-.077.14l-.014.005-5.299 1.222a.12.12 0 01-.145-.09.12.12 0 01.077-.141zM3.122 43.714l.477.225c5.026 2.373 7.963 3.97 8.84 4.808l.053.052c.316.305.878.782 1.685 1.428l-.272-5.208a.121.121 0 01.115-.127.122.122 0 01.125.1l.002.015.283 5.421c1.307 1.037 3.185 2.467 5.631 4.291l.838.622a.12.12 0 01.025.169.118.118 0 01-.168.025l-.957-.71a408.76 408.76 0 01-2.845-2.14l-5.196 1.39a.12.12 0 01-.148-.085.12.12 0 01.072-.143l.013-.004 5.015-1.344c-2.29-1.744-3.742-2.91-4.358-3.5l-.08-.078c-.609-.58-2.276-1.558-4.99-2.925l-.006.003-.01.003-3.528.778c-.044.01-.094-.034-.113-.098-.018-.058-.003-.114.034-.13l.01-.002 3.274-.723a176.768 176.768 0 00-3.453-1.674l-.47-.221a.12.12 0 01.103-.218z"/><path fill="#C9D1DA" d="M52.5 66.465H24.144a4.532 4.532 0 01-4.531-4.532V4.583A4.532 4.532 0 0124.144.052H52.5a4.532 4.532 0 014.532 4.532v57.349a4.532 4.532 0 01-4.532 4.532"/><path fill="#8093A8" d="M52.178 64.83H24.466a3.27 3.27 0 01-3.269-3.27V4.763a3.27 3.27 0 013.27-3.269h27.711a3.27 3.27 0 013.27 3.27V61.56a3.269 3.269 0 01-3.27 3.268"/><path fill="#FFF" d="M25.002 64.429a3.269 3.269 0 01-3.268-3.27V5.164a3.269 3.269 0 013.269-3.269h26.639a3.27 3.27 0 013.269 3.269V61.16a3.27 3.27 0 01-3.27 3.269H25.004z" opacity=".933"/><path fill="#8093A8" d="M38.314 28.773a7.179 7.179 0 017.055 5.85.373.373 0 11-.733.137 6.433 6.433 0 00-12.648.027.374.374 0 01-.735-.134 7.18 7.18 0 017.061-5.88z"/><path fill="#B0BCC9" d="M38.314 57.472a1.988 1.988 0 110 3.975 1.988 1.988 0 010-3.975zm7.794-56.154l-1.616 2.688c-.282.468-.943.773-1.676.773h-8.683c-.732 0-1.393-.305-1.675-.773l-1.616-2.688h15.266z"/><circle cx="33.028" cy="20.899" r="1.493" fill="#8093A8"/><circle cx="43.601" cy="20.899" r="1.493" fill="#8093A8"/><path fill="#FFE978" d="M16.255 38.827c1.17.144 2.32.739 3.454 1.783-2.042-.326-3.45-.476-4.225-.45-.774.027-2.06-.467-3.86-1.481 1.919-.046 3.463.004 4.631.148zm3.01-18.784c-.13 2.062-.417 3.41-.86 4.045-.427.61-1.037 1.802-1.83 3.573.35 1.246.607 2.338.768 3.277-.01-.944.161-1.78.515-2.507.516-1.058 1.315-2.38 2.398-3.965-.13 2.062-.416 3.41-.86 4.045-.432.619-1.051 1.832-1.859 3.641.159.87.388 1.746.661 2.554-.065-1.097.102-2.055.502-2.875.515-1.059 1.315-2.38 2.398-3.965-.13 2.061-.416 3.41-.86 4.044-.42.601-1.016 1.763-1.79 3.486.353.905.755 1.683 1.161 2.209l.01.62c-.095-.094-.19-.2-.283-.317-1.622-1.05-2.778-1.714-3.467-1.993-.718-.29-1.692-1.265-2.924-2.924 1.772.74 3.162 1.413 4.171 2.02.401.24.77.546 1.109.915a16.104 16.104 0 01-.56-1.545c-1.315-1.305-2.272-2.16-2.872-2.565-.642-.434-1.392-1.59-2.252-3.468 1.579 1.091 2.799 2.038 3.66 2.842.383.358.711.786.984 1.284a15.49 15.49 0 01-.131-.755l-.024-.161a20.58 20.58 0 00-.21-1.21c-1.313-1.302-2.27-2.156-2.868-2.561-.642-.434-1.393-1.59-2.253-3.468 1.58 1.091 2.8 2.039 3.66 2.842.408.38.753.84 1.035 1.38a59.611 59.611 0 00-.978-3.294c-.943-1.366-1.722-2.632-2.338-3.797a27.43 27.43 0 01-1.828-4.31c2.227 1.818 3.537 3.586 3.931 5.307.224.974.4 1.773.53 2.399l-.037-.111c.258.78.49 1.515.694 2.208-.074-1.121.092-2.1.498-2.935.516-1.058 1.315-2.38 2.398-3.965zm41.151 18.784c-1.17.144-2.32.739-3.454 1.783 2.042-.326 3.45-.475 4.225-.45.774.027 2.06-.467 3.86-1.481-1.919-.046-3.463.004-4.631.148zm-3.01-18.784c.13 2.062.417 3.41.86 4.045.427.61 1.037 1.802 1.83 3.574-.35 1.245-.607 2.337-.768 3.276.01-.944-.161-1.78-.515-2.507-.516-1.058-1.315-2.38-2.398-3.965.13 2.062.416 3.41.86 4.045.432.619 1.051 1.832 1.859 3.641-.158.87-.388 1.746-.661 2.554.065-1.097-.102-2.055-.502-2.875-.515-1.059-1.315-2.38-2.398-3.965.13 2.061.416 3.41.86 4.044.42.601 1.016 1.763 1.79 3.486-.353.905-.755 1.683-1.161 2.209l-.01.62c.095-.094.19-.2.283-.317 1.622-1.05 2.778-1.714 3.467-1.993.718-.29 1.692-1.265 2.924-2.924-1.772.74-3.162 1.413-4.171 2.02-.401.24-.77.546-1.109.915.204-.481.393-1.002.56-1.545 1.315-1.305 2.272-2.16 2.872-2.565.642-.434 1.392-1.59 2.252-3.468-1.579 1.091-2.799 2.038-3.66 2.842-.383.358-.71.786-.984 1.284.05-.252.094-.504.131-.755l.024-.161c.052-.374.123-.777.21-1.21 1.313-1.302 2.27-2.156 2.868-2.56.642-.435 1.393-1.59 2.253-3.469-1.58 1.091-2.8 2.039-3.66 2.842-.408.38-.753.84-1.035 1.38.259-.988.585-2.085.978-3.294.943-1.366 1.722-2.632 2.339-3.796a27.561 27.561 0 001.827-4.31c-2.227 1.817-3.537 3.586-3.931 5.306-.223.974-.4 1.773-.53 2.4l.037-.112c-.258.78-.49 1.515-.694 2.208.074-1.121-.092-2.1-.498-2.935-.516-1.058-1.315-2.38-2.398-3.965z"/><path fill="#8093A8" d="M27.22 46.86v-1.34l-.004-.15.078.15.86 1.34h.24v-1.878h-.226v1.336l.005.149-.078-.15-.859-1.335h-.242v1.878h.225zm2.096.038c.176 0 .326-.06.45-.18.125-.12.187-.298.187-.534 0-.235-.062-.413-.186-.533a.627.627 0 00-.451-.18.63.63 0 00-.453.18c-.124.12-.186.298-.186.533 0 .236.062.414.186.534a.63.63 0 00.453.18zm0-.188a.35.35 0 01-.293-.144.612.612 0 01-.111-.382c0-.157.037-.284.11-.38a.353.353 0 01.294-.145c.12 0 .217.048.291.145.074.096.11.223.11.38a.612.612 0 01-.11.382.349.349 0 01-.291.144zm2.508.188c.176 0 .31-.044.401-.13a.43.43 0 00.11-.467.272.272 0 00-.084-.105.508.508 0 00-.081-.05 2.449 2.449 0 00-.205-.066l-.08-.022-.107-.03a.458.458 0 01-.158-.073.127.127 0 01-.047-.102c0-.054.024-.1.073-.138a.333.333 0 01.207-.056c.076 0 .137.013.182.038.045.026.068.061.068.107v.005h.227v-.005a.318.318 0 00-.107-.23c-.07-.068-.19-.102-.358-.102-.17 0-.298.04-.384.12a.378.378 0 00-.13.282c0 .15.09.26.268.325l.155.048.077.024.114.036c.114.034.17.092.17.175a.198.198 0 01-.086.16.35.35 0 01-.225.068c-.106 0-.181-.019-.226-.057a.18.18 0 01-.067-.145v-.004h-.225v.004c0 .077.021.145.065.203a.433.433 0 00.176.137c.073.033.165.05.277.05zm1.4 0c.1 0 .19-.016.269-.049a.458.458 0 00.189-.141.305.305 0 00.071-.183v-.012h-.225v.012c0 .047-.023.09-.069.128-.046.038-.118.057-.217.057a.397.397 0 01-.323-.14.54.54 0 01-.117-.357h.96v-.075a.86.86 0 00-.073-.393.466.466 0 00-.197-.207.592.592 0 00-.279-.066.577.577 0 00-.457.205.765.765 0 00-.177.517c0 .203.056.372.168.504.112.133.27.2.476.2zm.321-.854h-.729a.52.52 0 01.14-.284.338.338 0 01.233-.101c.07 0 .133.014.186.043a.292.292 0 01.125.132c.03.06.045.12.045.183v.027zm.863.854a.549.549 0 00.201-.04.76.76 0 00.252-.185.61.61 0 00.036.187h.237a.9.9 0 01-.043-.22 3.86 3.86 0 01-.005-.182v-.525c0-.143-.018-.24-.055-.293a.374.374 0 00-.176-.124.768.768 0 00-.27-.046.757.757 0 00-.273.048.467.467 0 00-.201.144.307.307 0 00-.076.186v.017h.244v-.019c0-.054.026-.102.079-.144a.35.35 0 01.219-.062.39.39 0 01.201.05c.056.034.083.092.083.175v.154l-.12.022c-.266.052-.453.114-.562.185a.34.34 0 00-.163.302c0 .115.039.205.116.271.077.066.17.099.276.099zm.075-.169a.262.262 0 01-.11-.025.184.184 0 01-.113-.171c0-.07.032-.13.095-.18.064-.05.21-.103.438-.159l.068-.015v.133a.445.445 0 01-.05.214.406.406 0 01-.143.148.348.348 0 01-.185.055zm1.166.131v-.668c0-.188.04-.32.12-.394a.36.36 0 01.247-.112c.059 0 .115.013.168.04v-.234a.404.404 0 00-.272.01.496.496 0 00-.263.245v-.238h-.225v1.351h.225zm1.282.038a.646.646 0 00.267-.05.461.461 0 00.179-.14.301.301 0 00.069-.183v-.012h-.227v.012c0 .05-.022.093-.066.13-.044.037-.114.055-.21.055a.369.369 0 01-.283-.124c-.077-.083-.115-.217-.115-.402 0-.184.038-.318.115-.4a.365.365 0 01.283-.125c.096 0 .166.018.212.055.045.037.067.08.064.13v.013h.227v-.012a.295.295 0 00-.069-.19.46.46 0 00-.179-.135.664.664 0 00-.267-.048c-.198 0-.352.063-.46.189-.108.126-.162.3-.162.523 0 .224.054.399.162.525.108.126.262.189.46.189zm1.012-.038v-.664c0-.129.018-.228.054-.298a.407.407 0 01.144-.162.338.338 0 01.188-.058.28.28 0 01.155.043c.046.03.077.069.092.119.016.05.024.135.024.257v.763h.225V46c0-.148-.018-.256-.055-.323a.362.362 0 00-.157-.153.486.486 0 00-.227-.052.474.474 0 00-.304.107.68.68 0 00-.14.163v-.835h-.224v1.953h.225zm2.59 0v-.668c0-.188.04-.32.12-.394a.36.36 0 01.247-.112c.06 0 .116.013.169.04v-.234a.407.407 0 00-.273.01.496.496 0 00-.262.245v-.238h-.225v1.351h.225zm1.305.038a.695.695 0 00.27-.049.454.454 0 00.188-.141.3.3 0 00.072-.183v-.012h-.225v.012c0 .047-.023.09-.069.128-.046.038-.118.057-.217.057a.395.395 0 01-.323-.14.54.54 0 01-.117-.357h.96v-.075c0-.168-.025-.3-.073-.393a.462.462 0 00-.198-.207.585.585 0 00-.278-.066.576.576 0 00-.457.205.765.765 0 00-.177.517c0 .203.056.372.168.504.112.133.27.2.476.2zm.322-.854h-.73a.52.52 0 01.141-.284.334.334 0 01.233-.101c.07 0 .132.014.186.043a.292.292 0 01.125.132c.03.06.045.12.045.183v.027zm.952.854c.176 0 .31-.044.4-.13a.427.427 0 00.111-.467.272.272 0 00-.084-.105.508.508 0 00-.081-.05 2.449 2.449 0 00-.205-.066l-.08-.022-.107-.03a.458.458 0 01-.158-.073.127.127 0 01-.047-.102c0-.054.024-.1.073-.138a.333.333 0 01.207-.056c.076 0 .136.013.182.038.045.026.068.061.068.107v.005h.227v-.005a.318.318 0 00-.107-.23c-.07-.068-.19-.102-.358-.102-.17 0-.298.04-.384.12a.378.378 0 00-.13.282c0 .15.09.26.268.325l.155.048.077.024.114.036c.114.034.17.092.17.175a.198.198 0 01-.086.16.35.35 0 01-.225.068c-.106 0-.181-.019-.226-.057a.18.18 0 01-.067-.145v-.004h-.225v.004c0 .077.021.145.065.203a.433.433 0 00.176.137c.073.033.165.05.277.05zm1.251 0a.439.439 0 00.296-.111.688.688 0 00.137-.162v.235h.225v-1.35h-.225v.665a.676.676 0 01-.052.294.41.41 0 01-.142.165.343.343 0 01-.19.059.3.3 0 01-.194-.063c-.052-.041-.078-.16-.078-.358v-.762h-.225v.857c0 .214.043.356.13.426.087.07.193.106.318.106zm1.23-.038v-1.953h-.224v1.953h.225zm.927.038c.058 0 .141-.013.25-.04v-.189a.74.74 0 01-.2.041.295.295 0 01-.144-.032.191.191 0 01-.087-.102.785.785 0 01-.027-.249v-.63h.394v-.188h-.394v-.32h-.227v.32h-.233v.187h.233v.696c0 .14.018.243.053.307a.35.35 0 00.154.148c.068.034.144.05.228.05zm.95 0c.176 0 .31-.044.4-.13a.427.427 0 00.111-.467.272.272 0 00-.084-.105.508.508 0 00-.081-.05 2.449 2.449 0 00-.205-.066l-.08-.022-.107-.03a.458.458 0 01-.158-.073.127.127 0 01-.047-.102c0-.054.024-.1.073-.138a.333.333 0 01.207-.056c.076 0 .136.013.182.038.045.026.068.061.068.107v.005h.227v-.005a.318.318 0 00-.107-.23c-.07-.068-.19-.102-.359-.102-.169 0-.297.04-.383.12a.378.378 0 00-.13.282c0 .15.09.26.268.325l.155.048.077.024.114.036c.114.034.17.092.17.175 0 .061-.029.115-.086.16a.35.35 0 01-.225.068c-.106 0-.181-.019-.226-.057a.18.18 0 01-.067-.145v-.004h-.225v.004c0 .077.021.145.065.203a.433.433 0 00.176.137c.073.033.165.05.277.05zm2.251-.04a.173.173 0 00.179-.173.17.17 0 00-.048-.124.166.166 0 00-.12-.048.174.174 0 00-.127.048.164.164 0 00-.05.124c0 .049.015.09.048.123.032.034.072.05.118.05zm-.957.004c.05 0 .093-.016.127-.049a.161.161 0 00.052-.121.174.174 0 00-.174-.178.17.17 0 00-.122.052.169.169 0 00-.052.124c0 .047.017.087.05.12a.16.16 0 00.119.052zm1.925 0a.163.163 0 00.122-.05.159.159 0 00.05-.12.167.167 0 00-.053-.126.161.161 0 00-.124-.048.168.168 0 00-.118.053.16.16 0 00-.049.119c0 .049.016.09.049.123.032.033.073.05.123.05z"/></g></svg>